<?xml version="1.0" encoding="utf-8"?>
<svg version="1.1" xmlns="http://www.w3.org/2000/svg" xmlns:xlink="http://www.w3.org/1999/xlink" width="150" height="150" viewBox="0 0 150 150">
	<title>Drizzle</title>

 	<g stroke="#666" stroke-width="4" stroke-linecap="round" fill="white" transform="translate(-25,-10),scale(1.2)">
    	<!-- cloud - with hole for rain drop - mask -->
        <rect x="70" y="68" width="50" height="40" stroke="none"/>
        <rect x="53" y="89" width="60" height="21" stroke="none"/>
        
    	<path d="M 75 75 A 23 23, 0, 1, 0 55,110 L 60,110"/>
        <path d="M 110,110 115,110 A 21 21, 0, 1, 0 115,65"/>        
        <path d="M 105 80 A 25 25, 0, 1, 0 65,65"/>

  	</g>
      
    <!-- rain drop -->
    <g stroke="#00e" stroke-width="6" stroke-linecap="round" fill="none" >
		<path d="M 60 120 L 56,124 M 50 130 L 45,135 M 39 141 L 35,145"/>
		<path d="M 80 120 L 76,124 M 70 130 L 65,135 M 59 141 L 55,145"/>
		<path d="M 100 120 L 96,124 M 90 130 L 85,135 M 79 141 L 75,145"/>
  	</g>
</svg>