<?xml version="1.0" encoding="utf-8"?>
<svg version="1.1" xmlns="http://www.w3.org/2000/svg" xmlns:xlink="http://www.w3.org/1999/xlink" width="150" height="150" viewBox="0 0 150 150">
  <title>Heavy rain</title>

  <!-- cloud - with hole for rain drop -->
  <g stroke="#666" stroke-width="4" stroke-linecap="round" fill="white" transform="translate(-25,-10),scale(1.2)">  
    <!-- cloud - with hole for rain drop - mask -->
    <rect x="70" y="68" width="50" height="40" stroke="none"/>
    <rect x="53" y="89" width="60" height="21" stroke="none"/>
    
    <path d="M 75 75 A 23 23, 0, 1, 0 50,110"/>
    <path d="M 120,110 A 21 21, 0, 1, 0 115,65"/>
    <path d="M 105 80 A 25 25, 0, 1, 0 65,65"/>
  </g>

  <!-- rain drop -->
  <g stroke="none" fill="#00e" transform="translate(0,-45),scale(1.3)">
    <path d="M 92,112 A 55,55 0 0 1  74,117 A 13,13 0, 1, 0 87,130 A 55,55 0 0 1  92,112"/>
  </g>
  <g stroke="none" fill="#00e" transform="translate(-40,-37),scale(1.3)">
    <path d="M 92,112 A 55,55 0 0 1  74,117 A 13,13 0, 1, 0 87,130 A 55,55 0 0 1  92,112"/>
  </g>

</svg>