<?xml version="1.0" encoding="utf-8"?>
<svg version="1.1" xmlns="http://www.w3.org/2000/svg" xmlns:xlink="http://www.w3.org/1999/xlink" width="150" height="150" viewBox="0 0 150 150">
	<title>Light snow</title>
    
    <!-- cloud -->
 	  <g stroke="#666" stroke-width="4" stroke-linecap="round" fill="white" transform="translate(-25,-10),scale(1.2)">
      <!-- cloud - with hole for rain drop - mask -->
      <rect x="70" y="68" width="50" height="40" stroke="none"/>
      <rect x="53" y="89" width="60" height="21" stroke="none"/>
      
      <path d="M 75 75 A 23 23, 0, 1, 0 55,110 L 60,110"/>
      <path d="M 110,110 115,110 A 21 21, 0, 1, 0 115,65"/>        
      <path d="M 105 80 A 25 25, 0, 1, 0 65,65"/>

  	</g>
      
    <!-- snow flake -->
    <g stroke-width="4" stroke="#333" transform="translate(-50,-22),scale(1.5)">
      <line x1="71" y1="101" x2="97" y2="101" transform="rotate(-20, 84,101)"/>
      <line x1="71" y1="101" x2="97" y2="101" transform="rotate(40, 84,101)"/>
      <line x1="71" y1="101" x2="97" y2="101" transform="rotate(100, 84,101)"/>
    </g>
</svg>
