<?xml version="1.0" encoding="utf-8"?>
<svg version="1.1" xmlns="http://www.w3.org/2000/svg" xmlns:xlink="http://www.w3.org/1999/xlink" width="150" height="150" viewBox="0 0 150 150">
	<title>Day - partly cloudy</title>

    <!-- sun -->
    <g style="stroke-width:7;stroke:orange" transform="translate(-20,-20)">
        <line x1="20" y1="75" x2="32" y2="75" transform="rotate(-20, 75, 75)"/>
        <line x1="20" y1="75" x2="32" y2="75" transform="rotate(4, 75, 75)"/>
        <line x1="20" y1="75" x2="32" y2="75" transform="rotate(28, 75, 75)"/>
        <line x1="20" y1="75" x2="32" y2="75" transform="rotate(52, 75, 75)"/>
        <line x1="20" y1="75" x2="32" y2="75" transform="rotate(76, 75, 75)"/>
        <line x1="20" y1="75" x2="32" y2="75" transform="rotate(100, 75, 75)"/>
        <line x1="20" y1="75" x2="32" y2="75" transform="rotate(124, 75, 75)"/>
        <line x1="20" y1="75" x2="32" y2="75" transform="rotate(148, 75, 75)"/>
        <circle cx="75" cy="75" r="36" fill="orange"/>
  	</g>
    
    
    
    <!-- cloud -->
 	<g stroke="#666" stroke-width="4" stroke-linecap="round" fill="white" transform="translate(-25,-10),scale(1.2)">
    	<!-- cloud mask -->
        <rect x="70" y="68" width="50" height="40" stroke="none"/>
        
    	<path d="M 75 75 A 23 23, 0, 1, 0 55,110 L 110,110"/>
        <path d="M 110,110 115,110 A 21 21, 0, 1, 0 115,65"/>        
        <path d="M 105 80 A 25 25, 0, 1, 0 65,65"/>
  	</g>

</svg>
