<?xml version="1.0" encoding="utf-8"?>
<svg version="1.1" xmlns="http://www.w3.org/2000/svg" xmlns:xlink="http://www.w3.org/1999/xlink" width="150" height="150" viewBox="0 0 150 150">
	<title>Day - light rain showers</title>

    <!-- sun -->
    <g xmlns="http://www.w3.org/2000/svg" style="stroke-width:7;stroke:orange" transform="translate(-20,-20)">
        <line x1="20" y1="75" x2="32" y2="75" transform="rotate(-20, 75, 75)"/>
        <line x1="20" y1="75" x2="32" y2="75" transform="rotate(4, 75, 75)"/>
        <line x1="20" y1="75" x2="32" y2="75" transform="rotate(28, 75, 75)"/>
        <line x1="20" y1="75" x2="32" y2="75" transform="rotate(52, 75, 75)"/>
        <line x1="20" y1="75" x2="32" y2="75" transform="rotate(76, 75, 75)"/>
        <line x1="20" y1="75" x2="32" y2="75" transform="rotate(100, 75, 75)"/>
        <line x1="20" y1="75" x2="32" y2="75" transform="rotate(124, 75, 75)"/>
        <line x1="20" y1="75" x2="32" y2="75" transform="rotate(148, 75, 75)"/>
        <circle cx="75" cy="75" r="36" fill="orange"/>
  	</g>
    
    
    
    <!-- cloud -->
 	<g stroke="#666" stroke-width="4" stroke-linecap="round" fill="none" transform="translate(-25,-10),scale(1.2)">
    	<!-- cloud mask -->
        <rect x="30" y="70" width="100" height="60" fill="white" stroke="none" />
        <rect x="70" y="40" width="40" height="36" fill="white" stroke="none" />
        
    	<path d="M 75 75 A 23 23, 0, 1, 0 55,110 L 60,110"/>
        <path d="M 110,110 115,110 A 21 21, 0, 1, 0 115,65"/>        
        <path d="M 105 80 A 25 25, 0, 1, 0 65,65"/>
  	</g>
    <!-- rain drop -->
    <g stroke="none" fill="#00e" transform="translate(-36,-65),scale(1.5)">
		<path d="M 92,112 A 55,55 0 0 1  74,117 A 13,13 0, 1, 0 87,130 A 55,55 0 0 1  92,112"/>
  	</g>
</svg>
