<?xml version="1.0" encoding="utf-8"?>
<svg version="1.1" xmlns="http://www.w3.org/2000/svg" xmlns:xlink="http://www.w3.org/1999/xlink" width="150" height="150" viewBox="0 0 150 150">
	<title>Night - partly cloudy</title>

    <!-- moon -->
    <g stroke-width="10" stroke="#666" stroke-linecap="round" fill="none" transform="translate(0,0),scale(0.8),rotate(20,75,75)">
        <path d="M75 5 A70 70 0 1 0 145 105" />
        <path d="M75 5 A62 62 0 0 0 145 105" />
    </g>
    
    <!-- cloud -->
 	<g stroke="#666" stroke-width="12" stroke-linecap="round" fill="none" transform="translate(-25,-10),scale(1.2)">
    	<!-- cloud mask -->
        <rect x="30" y="70" width="100" height="60" fill="white" stroke="none" />
        <rect x="70" y="40" width="40" height="36" fill="white" stroke="none" />
        
    	<path d="M 75 75 A 23 23, 0, 1, 0 55,110 L 110,110"/>
        <path d="M 110,110 115,110 A 21 21, 0, 1, 0 115,65"/>        
        <path d="M 105 80 A 25 25, 0, 1, 0 65,65"/>
  	</g>

</svg>
