<?xml version="1.0" encoding="utf-8"?>
<svg version="1.1" xmlns="http://www.w3.org/2000/svg" xmlns:xlink="http://www.w3.org/1999/xlink" width="150" height="150" viewBox="0 0 150 150">
	<title>Night - heavy snow showers</title>

    <!-- moon -->
    <g stroke-width="10" stroke="#666" stroke-linecap="round" fill="none" transform="translate(0,0),scale(0.8),rotate(20,75,75)">
        <path d="M75 5 A70 70 0 1 0 145 105" />
        <path d="M75 5 A62 62 0 0 0 145 105" />
    </g>
    
    <!-- cloud - with hole for rain drop -->
 	  <g stroke="#666" stroke-width="4" stroke-linecap="round" fill="white" transform="translate(-25,-10),scale(1.2)">
    	<!-- cloud - with hole for rain drop - mask -->
      <rect x="60" y="68" width="60" height="40" stroke="white"/>
      <rect x="53" y="89" width="60" height="21" stroke="white"/>
        
    	<path d="M 75 75 A 23 23, 0, 1, 0 50,110"/>
      <path d="M 120,110 A 21 21, 0, 1, 0 115,65"/>
      <path d="M 105 80 A 25 25, 0, 1, 0 65,65"/>
  	</g>
    
    <!-- snow flake -->
    <g stroke-width="4" stroke="#333" transform="translate(-4,0),scale(1.2)">
      <line x1="71" y1="101" x2="97" y2="101" transform="rotate(-20, 84,101)"/>
      <line x1="71" y1="101" x2="97" y2="101" transform="rotate(40, 84,101)"/>
      <line x1="71" y1="101" x2="97" y2="101" transform="rotate(100, 84,101)"/>
    </g>
    <!-- snow flake #2 -->
    <g  stroke-width="4" stroke="#333" transform="translate(-40,12),scale(1.2)">
		  <line x1="71" y1="101" x2="97" y2="101" transform="rotate(-20, 84,101)"/>
      <line x1="71" y1="101" x2="97" y2="101" transform="rotate(40, 84,101)"/>
      <line x1="71" y1="101" x2="97" y2="101" transform="rotate(100, 84,101)"/>
  	</g>
</svg>
