<svg version="1" xmlns="http://www.w3.org/2000/svg" width="933.333" height="933.333" viewBox="0 0 700.000000 700.000000"><path d="M284.1 6.2c-1.3 6.5-7.9 44.4-8.3 47.7-.3 2.4 0 2.5 15.6 5.3 8.7 1.6 16 2.7 16.2 2.6.4-.5 9.4-51.5 9.4-53.6 0-1.5-2-2.1-13.2-4.1-7.3-1.2-14.5-2.5-16-2.8-2.5-.5-2.7-.2-3.7 4.9zM192.8 7.7c-10.7 2.7-13.8 3.9-13.8 5.2.1 2 12.6 52.1 13.3 52.7.5.6 29.9-6.6 31-7.6.4-.4-2.2-12.7-5.9-27.3-6.1-24.6-6.8-26.7-8.8-26.6-1.1 0-8.3 1.7-15.8 3.6zM371.2 57.4C362.8 69.7 356 80.3 356 80.9c0 .6 5.9 5 13 9.8 11.2 7.4 13.3 8.4 14.4 7.2.7-.8 7.9-11.2 15.9-23.1L414 53.1l-12.7-8.7c-7-4.7-13.2-8.8-13.8-9.1-.7-.2-8 9.7-16.3 22.1zM100 53.1c-6.3 5-12.1 9.6-12.9 10.4-1.1 1.1 1.5 4.9 15.9 23.3l17.2 22.1 11.7-9.1c6.4-5 12.2-9.6 12.9-10.3 1.1-.9-1.9-5.3-15.4-22.6-9.2-11.8-16.9-21.7-17.3-22.1-.3-.4-5.8 3.4-12.1 8.3z"/><path d="M240 73c-72.1 6.5-134.6 55.8-157.9 124.6-19.5 57.8-9.5 120.6 27.2 169.9 3.3 4.4 12 14 19.3 21.3L142 402v6.8c0 15.4 4.7 34.6 12.3 49.7 5.9 11.8 11 18.8 21.1 29 13.1 13.2 26.8 22 44.4 28.4 14.8 5.4 21.9 6.5 43.9 6.5l20.2.1 2.7-2.6c3.7-3.7 3.7-8.9.1-12.7l-2.8-2.9-18.7-.6c-19.4-.6-29.4-2.2-41.1-6.7-27.6-10.7-49.3-33.2-57.9-60-3.5-11-4.5-18-4.5-31 0-27.4 8.8-49.5 27.4-68 19-19 43-29.1 68.9-29.1 33.1 0 60.8 14.7 81.8 43.3 3 4.1 5.2 6 7.5 6.6 6.5 1.7 11.7-2.2 11.7-8.8 0-4.6-6.9-15-16.5-24.8-6.3-6.4-6.8-7.2-4.6-7.2 4.1 0 1.4-1.4-12-6.5l-12.6-4.7-1.1-10.2c-1.6-13.2-1.5-18.7.3-30 3.9-24.2 14.1-44.4 30.9-61.1 10.3-10.3 20.5-17.1 33.3-22.1 15.9-6.3 23.8-7.7 42.3-7.7 14.8-.1 17.5.2 26.4 2.6 51.1 13.7 85.7 65.3 78.2 116.3-3.8 25.7-13.6 45.3-31.8 63.8-10 10.1-10.8 11.2-10.8 14.8 0 3 .7 4.6 2.9 6.9 5.6 5.5 9.5 3.9 23-9.3 13.2-13.1 25-32.5 30.5-50.3l2.2-7 6.2.3c13 .6 30.5 6.7 43.4 15.2 31.6 20.8 48.4 60.5 40.8 97-6.1 29.6-23.1 52.6-49.3 66.5-15.3 8.1-32.4 11.5-58.4 11.5-12.4 0-12.5 0-15.4 2.9-4.5 4.6-3.5 11.7 2 14.6 4.1 2 32 2.1 44.8 0 46.6-7.6 83-40.9 94.4-86.7 3-12 3.7-33.5 1.5-45.2-2.2-11.2-6-23.4-9.8-31.1-17.3-34.7-49.7-58.1-88.1-63.6l-8.2-1.2.3-11c1.1-39-18.8-78.4-52.3-103.5-9-6.7-26.7-15.5-37.5-18.5l-8.4-2.5 6.9-4.4c3.9-2.4 12.3-7.7 18.8-11.7 6.4-4 11.7-7.5 11.7-7.7 0-.6-15.3-24.9-16.5-26.2-1-1.1-5.4 1.2-24.1 12.9-12.6 7.8-23.2 14.5-23.7 14.9-.4.3 1.7 4.4 4.6 9.1 2.9 4.6 5.6 9 6.1 9.6.5 1-1.4 1.3-8.6 1.3h-9.3l-8-10.5c-28.6-38-71.1-63.4-118.5-71-11.3-1.8-33.2-2.6-45-1.5zM34.4 127.7c-1.7 3.2-5.2 9.7-7.8 14.4l-4.6 8.5 23.8 12.6c13 7 24.3 12.8 25 13 1.1.3 16.2-26 16.2-28 0-.6-46.2-25.3-48.5-26-.6-.1-2.4 2.3-4.1 5.5zM1.6 222.8c-.2.4-.7 7.8-1.1 16.4l-.8 15.7 3.4.5c4.7.7 52 3.9 52.3 3.4.3-.3 2.5-32.2 2.3-32.5-.1 0-10.8-.8-23.7-1.7-12.9-.9-25.4-1.8-27.7-2.1-2.3-.2-4.4-.1-4.7.3zM35.8 319.4c-13.6 5-24.9 9.4-25.3 9.7-.8.9 10 30.4 11.1 30.4.5 0 12.5-4.2 26.6-9.4l25.7-9.3-4.1-11.2c-2.2-6.1-4.7-13-5.5-15.4-.8-2.3-2-4.2-2.6-4.1-.7.1-12.3 4.2-25.9 9.3z"/><path d="M324.3 409.7c-2.8 6.3-2.8 6.3-.3 6.3 2.6 0 3.2-1.6 2.8-7.1l-.3-4.4-2.2 5.2zM417.5 527.1c-18.2 8-42.7 14.5-65 17.4-21.2 2.6-24.6 3.4-33.4 7.7-6.6 3.2-10.1 5.7-16.6 12.1-12.4 12.4-17.5 24.6-17.5 42 0 28.6 18.1 52.1 45.6 59.1 7.9 2 22.2 2 29.9.1 11-2.8 18.4-7.2 27.2-16 6.4-6.5 8.9-10 12.1-16.6 4.3-8.8 5.1-12.2 7.7-33.4 2.9-22.2 9.3-46.3 17.5-65.4 2.2-5.2 4-9.8 4-10.3 0-1.4-2.2-.8-11.5 3.3z"/></svg>