<svg version="1" xmlns="http://www.w3.org/2000/svg" width="400" height="400" viewBox="0 0 300.000000 300.000000"><path d="M120.5 10.7c-.9 5.4-1.9 10.5-2.1 11.5-.4 1.3.6 1.9 4.6 2.7 8.9 1.9 8.6 2.2 10.4-8.2.9-5 1.9-10.2 2.1-11.4.4-1.9-.1-2.3-4.6-3.2-8.9-1.9-8.5-2.3-10.4 8.6zM82.7 3.5c-2.7.7-5.1 1.5-5.3 1.8-.4.4 4.5 21.6 5.1 22.5.2.2 3.2-.5 6.9-1.4 5.9-1.5 6.5-1.9 6-3.8-.3-1.1-1.5-6.1-2.8-11.1-1.4-5.8-2.7-9.1-3.7-9.2-.8-.1-3.6.5-6.2 1.2zM159.3 24.6c-3.5 5.2-6.3 9.7-6.3 10.1 0 .9 9.6 7.3 10.7 7.3.9 0 13.7-19 13.1-19.4-.8-.6-9.4-6.3-10.3-6.8-.5-.3-3.8 3.6-7.2 8.8zM42.5 23.2c-2.7 2.2-4.9 4.5-4.7 5C38.2 29.6 51 46 51.7 46c.8 0 10.2-7.4 10.3-8.1 0-.6-10.9-15-13.4-17.6-.8-.9-2.3-.2-6.1 2.9z"/><path d="M97.8 32c-31.6 5.8-55.3 27.1-64 57.7-4.4 15.6-2.5 39.1 4.2 52.4l2 3.9-4.6 6.2C27.1 163.5 23 175.5 23 188.6c0 17.3 5.3 29.7 18 42.5 13.1 13.2 24.9 17.8 45.2 17.9 10.2 0 12.8-1 12.8-5 0-3.8-2.4-4.7-14.7-5.3-17.7-.8-27.9-5.2-38.5-16.4-11-11.8-15.6-30.3-11.4-45.9 5.8-21.9 25.8-37.5 48.1-37.5 15.4 0 29.8 6.7 39.5 18.7 6.1 7.5 8.1 8.5 11.1 5.8 2.7-2.4 2.4-4.4-1.3-9.6-6.3-8.7-9.7-11.8-15.2-13.9l-5.3-2.1-.7-5.1c-1-8.9-.7-15 1.3-21.9 10-34.8 47.4-50.9 79.3-34.1 17.3 9.1 28.3 27.7 28.3 47.8-.1 15.3-5.1 27.8-16 39.4-3.6 3.7-6.5 7.5-6.5 8.3 0 2 3.2 4.8 5.4 4.8 1 0 5.1-3.3 9-7.3 5.4-5.3 8.4-9.4 11.4-15.6 2.3-4.6 4.2-9.2 4.2-10.2 0-2.8 2.1-3.2 8.5-1.9 18.1 3.8 33.2 18.3 38 36.5 5.3 20.7-5.1 44.1-24 54.2-8.4 4.4-16.7 6.3-27.8 6.3-10.1 0-12.7 1-12.7 5 0 4.1 2.5 5 13.7 5 22.4 0 40.1-8.8 51.6-25.7 24.4-35.7 4.4-83.1-38.5-91.3l-5.8-1.1v-6.2c-.1-21.6-12-43.1-30.2-54.4-3.2-2-5.8-3.9-5.8-4.2 0-.3 2.9-2.4 6.5-4.6l6.4-4-3.4-5.4c-1.8-2.9-3.5-5.5-3.7-5.7-.3-.2-5 2.5-10.6 6-7.6 4.7-9.8 6.6-9 7.4 1.8 1.8.6 2.2-4.2 1.1-3.3-.7-5.9-2.4-10-6.3-11-10.5-21.7-16.8-35.2-20.6-8.2-2.3-25.5-3.4-33-2zM12.9 58.3c-3.6 6.9-4.8 5.3 9.2 12.8l8.6 4.6 3.3-5.9c1.7-3.3 3-6.2 2.7-6.4-.3-.3-5-2.9-10.5-5.8l-10.1-5.3-3.2 6zM.6 99c-.3 1.9-.6 4.9-.6 6.7 0 3.6 0 3.6 16.2 4.8l7.6.6.4-6.8c.2-3.7.3-6.9.3-7 0-.1-5.3-.5-11.7-1l-11.6-.8L.6 99z"/><path d="M14.9 137.1l-10.6 4 2.2 6.2c1.3 3.4 2.7 6.2 3.1 6.2 1.4 0 19.8-6.7 20.7-7.5.9-.8-3.1-13.1-4.2-12.9-.3 0-5.4 1.8-11.2 4zM196.5 208.9c-11.5 5.2-27.4 9.2-45.5 11.5-19.5 2.5-29.3 8.9-36.4 23.6-5.8 12.2-4.7 25.9 3.1 37.7 4.1 6.3 9.1 10.4 17 14.1 5 2.3 7 2.7 15.3 2.7 8.5 0 10.2-.3 16-3.1 14.2-6.7 21.1-17.5 23.6-36.6 2.3-17.9 6.3-33.4 12.3-47.1 1.9-4.3 1.9-4.7.3-4.7-.9 0-3.5.9-5.7 1.9z"/></svg>